<svg xmlns="http://www.w3.org/2000/svg" xmlns:xlink="http://www.w3.org/1999/xlink" width="500" zoomAndPan="magnify" viewBox="0 0 375 374.999991" height="500" preserveAspectRatio="xMidYMid meet" version="1.0"><defs><g/><clipPath id="12af977673"><path d="M 108 54 L 308 54 L 308 125 L 108 125 Z M 108 54 " clip-rule="nonzero"/></clipPath><clipPath id="65db5d5a38"><path d="M 231.28125 0 L 307.660156 123.5625 L 184.097656 199.941406 L 107.71875 76.382812 Z M 231.28125 0 " clip-rule="nonzero"/></clipPath><clipPath id="6a62a52e38"><path d="M 231.28125 0 L 307.660156 123.5625 L 184.097656 199.941406 L 107.71875 76.382812 Z M 231.28125 0 " clip-rule="nonzero"/></clipPath><clipPath id="297e97f502"><path d="M 197 168 L 283 168 L 283 346 L 197 346 Z M 197 168 " clip-rule="nonzero"/></clipPath><clipPath id="f4d875bee2"><path d="M 222.398438 168.628906 L 328.699219 311.152344 L 243 375.070312 L 136.699219 232.546875 Z M 222.398438 168.628906 " clip-rule="nonzero"/></clipPath><clipPath id="3feb25be05"><path d="M 222.398438 168.628906 L 328.699219 311.152344 L 243 375.070312 L 136.699219 232.546875 Z M 222.398438 168.628906 " clip-rule="nonzero"/></clipPath><clipPath id="d8e07abe27"><path d="M 57.476562 72.761719 L 307.328125 72.761719 L 307.328125 322.613281 L 57.476562 322.613281 Z M 57.476562 72.761719 " clip-rule="nonzero"/></clipPath></defs><g clip-path="url(#12af977673)"><g clip-path="url(#65db5d5a38)"><g clip-path="url(#6a62a52e38)"><path fill="#3e6541" d="M 305.160156 124.625 C 263.941406 57.949219 176.160156 37.234375 109.480469 78.453125 L 108.082031 76.1875 C 110.097656 74.941406 112.144531 73.742188 114.21875 72.59375 C 116.292969 71.445312 118.394531 70.351562 120.519531 69.304688 C 122.648438 68.261719 124.800781 67.269531 126.980469 66.332031 C 129.15625 65.394531 131.355469 64.507812 133.574219 63.679688 C 135.796875 62.847656 138.035156 62.070312 140.292969 61.351562 C 142.550781 60.628906 144.828125 59.964844 147.117188 59.359375 C 149.410156 58.75 151.714844 58.195312 154.03125 57.703125 C 156.351562 57.207031 158.679688 56.769531 161.019531 56.386719 C 163.359375 56.007812 165.707031 55.683594 168.0625 55.417969 C 170.421875 55.152344 172.78125 54.945312 175.148438 54.792969 C 177.511719 54.644531 179.882812 54.554688 182.25 54.519531 C 184.621094 54.488281 186.992188 54.511719 189.359375 54.597656 C 191.730469 54.679688 194.097656 54.820312 196.457031 55.019531 C 198.820312 55.21875 201.175781 55.476562 203.527344 55.792969 C 205.875 56.109375 208.214844 56.480469 210.546875 56.914062 C 212.878906 57.34375 215.199219 57.832031 217.503906 58.375 C 219.8125 58.917969 222.105469 59.519531 224.382812 60.175781 C 226.660156 60.835938 228.921875 61.546875 231.164062 62.316406 C 233.40625 63.082031 235.628906 63.90625 237.832031 64.785156 C 240.035156 65.660156 242.214844 66.59375 244.371094 67.578125 C 246.527344 68.5625 248.65625 69.597656 250.765625 70.6875 C 252.871094 71.777344 254.945312 72.917969 256.996094 74.109375 C 259.046875 75.300781 261.066406 76.542969 263.054688 77.832031 C 265.042969 79.125 266.996094 80.460938 268.921875 81.847656 C 270.84375 83.234375 272.730469 84.667969 274.582031 86.148438 C 276.4375 87.628906 278.25 89.152344 280.027344 90.722656 C 281.804688 92.289062 283.542969 93.902344 285.242188 95.554688 C 286.941406 97.210938 288.597656 98.90625 290.210938 100.640625 C 291.824219 102.375 293.398438 104.148438 294.925781 105.964844 C 296.453125 107.777344 297.933594 109.625 299.371094 111.511719 C 300.808594 113.394531 302.199219 115.316406 303.539062 117.269531 C 304.882812 119.222656 306.175781 121.210938 307.421875 123.226562 " fill-opacity="1" fill-rule="nonzero"/></g></g></g><g clip-path="url(#297e97f502)"><g clip-path="url(#f4d875bee2)"><g clip-path="url(#3feb25be05)"><path fill="#3e6541" d="M 282.4375 345.945312 L 282.332031 344.941406 L 276.726562 290.746094 L 273.25 257.113281 L 250.382812 274.007812 C 245.449219 269.621094 240.882812 264.671875 236.777344 259.171875 C 233.058594 254.179688 229.902344 248.945312 227.253906 243.546875 C 216.304688 221.242188 214.449219 196.113281 220.980469 173.121094 C 221.335938 171.625 221.722656 170.371094 222.132812 169.375 C 222.203125 169.15625 222.273438 168.9375 222.34375 168.722656 C 210.710938 185.214844 203.757812 204.296875 201.847656 223.929688 C 199.464844 248.4375 204.925781 273.757812 218.753906 295.894531 C 218.941406 296.277344 219.105469 296.644531 219.304688 297.027344 L 197.335938 313.253906 L 282.4375 345.945312 " fill-opacity="1" fill-rule="nonzero"/></g></g></g><g clip-path="url(#d8e07abe27)"><path fill="#3e6541" d="M 307.128906 197.585938 C 307.128906 199.628906 307.078125 201.671875 306.976562 203.710938 C 306.878906 205.753906 306.726562 207.789062 306.527344 209.820312 C 306.328125 211.855469 306.078125 213.882812 305.777344 215.902344 C 305.476562 217.921875 305.128906 219.933594 304.730469 221.9375 C 304.332031 223.941406 303.882812 225.933594 303.386719 227.917969 C 302.890625 229.898438 302.347656 231.867188 301.753906 233.820312 C 301.160156 235.777344 300.519531 237.714844 299.832031 239.640625 C 299.144531 241.5625 298.40625 243.46875 297.625 245.355469 C 296.84375 247.242188 296.015625 249.109375 295.144531 250.957031 C 294.269531 252.804688 293.351562 254.628906 292.390625 256.429688 C 291.425781 258.230469 290.417969 260.007812 289.367188 261.761719 C 288.320312 263.511719 287.226562 265.238281 286.089844 266.9375 C 284.957031 268.632812 283.78125 270.304688 282.5625 271.945312 C 281.347656 273.585938 280.089844 275.195312 278.792969 276.773438 C 277.5 278.355469 276.164062 279.902344 274.792969 281.414062 C 273.421875 282.929688 272.011719 284.40625 270.566406 285.851562 C 269.125 287.296875 267.644531 288.703125 266.128906 290.078125 C 264.617188 291.449219 263.070312 292.78125 261.492188 294.078125 C 259.910156 295.375 258.300781 296.628906 256.660156 297.847656 C 255.019531 299.0625 253.351562 300.242188 251.652344 301.375 C 249.953125 302.511719 248.226562 303.601562 246.476562 304.652344 C 244.722656 305.703125 242.945312 306.710938 241.144531 307.671875 C 239.34375 308.636719 237.519531 309.554688 235.671875 310.425781 C 233.824219 311.300781 231.957031 312.128906 230.070312 312.910156 C 228.183594 313.691406 226.277344 314.425781 224.355469 315.117188 C 222.433594 315.804688 220.492188 316.445312 218.539062 317.039062 C 216.582031 317.628906 214.613281 318.175781 212.632812 318.671875 C 210.652344 319.167969 208.660156 319.613281 206.65625 320.011719 C 204.652344 320.410156 202.640625 320.761719 200.617188 321.0625 C 198.597656 321.359375 196.570312 321.609375 194.539062 321.8125 C 192.503906 322.011719 190.46875 322.160156 188.429688 322.261719 C 186.386719 322.363281 184.347656 322.410156 182.304688 322.410156 C 180.261719 322.410156 178.21875 322.363281 176.179688 322.261719 C 174.136719 322.160156 172.101562 322.011719 170.066406 321.8125 C 168.035156 321.609375 166.007812 321.359375 163.988281 321.0625 C 161.964844 320.761719 159.953125 320.410156 157.949219 320.011719 C 155.945312 319.613281 153.953125 319.167969 151.972656 318.671875 C 149.992188 318.175781 148.023438 317.628906 146.066406 317.039062 C 144.113281 316.445312 142.175781 315.804688 140.25 315.117188 C 138.328125 314.425781 136.421875 313.691406 134.535156 312.910156 C 132.648438 312.128906 130.78125 311.300781 128.933594 310.425781 C 127.085938 309.554688 125.261719 308.636719 123.460938 307.671875 C 121.660156 306.710938 119.882812 305.703125 118.128906 304.652344 C 116.378906 303.601562 114.652344 302.511719 112.953125 301.375 C 111.253906 300.242188 109.585938 299.0625 107.945312 297.847656 C 106.304688 296.628906 104.695312 295.375 103.113281 294.078125 C 101.535156 292.78125 99.988281 291.449219 98.476562 290.078125 C 96.960938 288.703125 95.484375 287.296875 94.039062 285.851562 C 92.59375 284.40625 91.183594 282.929688 89.8125 281.414062 C 88.441406 279.902344 87.109375 278.355469 85.8125 276.773438 C 84.515625 275.195312 83.257812 273.585938 82.042969 271.945312 C 80.824219 270.304688 79.648438 268.632812 78.515625 266.9375 C 77.378906 265.238281 76.285156 263.511719 75.238281 261.761719 C 74.1875 260.007812 73.179688 258.230469 72.21875 256.429688 C 71.253906 254.628906 70.335938 252.804688 69.460938 250.957031 C 68.589844 249.109375 67.761719 247.242188 66.980469 245.355469 C 66.199219 243.46875 65.460938 241.5625 64.773438 239.640625 C 64.085938 237.714844 63.445312 235.777344 62.851562 233.820312 C 62.257812 231.867188 61.714844 229.898438 61.21875 227.917969 C 60.722656 225.933594 60.273438 223.941406 59.875 221.9375 C 59.476562 219.933594 59.128906 217.921875 58.828125 215.902344 C 58.527344 213.882812 58.277344 211.855469 58.078125 209.820312 C 57.878906 207.789062 57.726562 205.753906 57.628906 203.710938 C 57.527344 201.671875 57.476562 199.628906 57.476562 197.585938 C 57.476562 195.542969 57.527344 193.503906 57.628906 191.460938 C 57.726562 189.421875 57.878906 187.386719 58.078125 185.351562 C 58.277344 183.320312 58.527344 181.292969 58.828125 179.269531 C 59.128906 177.25 59.476562 175.238281 59.875 173.234375 C 60.273438 171.230469 60.722656 169.238281 61.21875 167.257812 C 61.714844 165.273438 62.257812 163.308594 62.851562 161.351562 C 63.445312 159.398438 64.085938 157.457031 64.773438 155.535156 C 65.460938 153.609375 66.199219 151.707031 66.980469 149.816406 C 67.761719 147.929688 68.589844 146.0625 69.460938 144.21875 C 70.335938 142.371094 71.253906 140.546875 72.21875 138.746094 C 73.179688 136.941406 74.1875 135.167969 75.238281 133.414062 C 76.285156 131.660156 77.378906 129.9375 78.515625 128.238281 C 79.648438 126.539062 80.824219 124.871094 82.042969 123.230469 C 83.257812 121.585938 84.515625 119.976562 85.8125 118.398438 C 87.109375 116.820312 88.441406 115.273438 89.8125 113.757812 C 91.183594 112.246094 92.59375 110.765625 94.039062 109.320312 C 95.484375 107.878906 96.960938 106.46875 98.476562 105.097656 C 99.988281 103.726562 101.535156 102.390625 103.113281 101.09375 C 104.695312 99.800781 106.304688 98.542969 107.945312 97.328125 C 109.585938 96.109375 111.253906 94.933594 112.953125 93.796875 C 114.652344 92.664062 116.378906 91.570312 118.128906 90.519531 C 119.882812 89.46875 121.660156 88.464844 123.460938 87.5 C 125.261719 86.539062 127.085938 85.621094 128.933594 84.746094 C 130.78125 83.871094 132.648438 83.046875 134.535156 82.261719 C 136.421875 81.480469 138.328125 80.746094 140.25 80.058594 C 142.175781 79.371094 144.113281 78.730469 146.066406 78.136719 C 148.023438 77.542969 149.992188 77 151.972656 76.503906 C 153.953125 76.007812 155.945312 75.558594 157.949219 75.160156 C 159.953125 74.761719 161.964844 74.414062 163.988281 74.113281 C 166.007812 73.8125 168.035156 73.5625 170.066406 73.363281 C 172.101562 73.164062 174.136719 73.011719 176.179688 72.910156 C 178.21875 72.8125 180.261719 72.761719 182.304688 72.761719 C 184.347656 72.761719 186.386719 72.8125 188.429688 72.910156 C 190.46875 73.011719 192.503906 73.164062 194.539062 73.363281 C 196.570312 73.5625 198.597656 73.8125 200.617188 74.113281 C 202.640625 74.414062 204.652344 74.761719 206.65625 75.160156 C 208.660156 75.558594 210.652344 76.007812 212.632812 76.503906 C 214.613281 77 216.582031 77.542969 218.539062 78.136719 C 220.492188 78.730469 222.433594 79.371094 224.355469 80.058594 C 226.277344 80.746094 228.183594 81.480469 230.070312 82.261719 C 231.957031 83.046875 233.824219 83.871094 235.671875 84.746094 C 237.519531 85.621094 239.34375 86.539062 241.144531 87.5 C 242.945312 88.464844 244.722656 89.46875 246.476562 90.519531 C 248.226562 91.570312 249.953125 92.664062 251.652344 93.796875 C 253.351562 94.933594 255.019531 96.109375 256.660156 97.328125 C 258.300781 98.542969 259.910156 99.800781 261.492188 101.09375 C 263.070312 102.390625 264.617188 103.726562 266.128906 105.097656 C 267.644531 106.46875 269.125 107.878906 270.566406 109.320312 C 272.011719 110.765625 273.421875 112.246094 274.792969 113.757812 C 276.164062 115.273438 277.5 116.820312 278.792969 118.398438 C 280.089844 119.976562 281.347656 121.585938 282.5625 123.230469 C 283.78125 124.871094 284.957031 126.539062 286.089844 128.238281 C 287.226562 129.9375 288.320312 131.660156 289.367188 133.414062 C 290.417969 135.167969 291.425781 136.941406 292.390625 138.746094 C 293.351562 140.546875 294.269531 142.371094 295.144531 144.21875 C 296.015625 146.0625 296.84375 147.929688 297.625 149.816406 C 298.40625 151.707031 299.144531 153.609375 299.832031 155.535156 C 300.519531 157.457031 301.160156 159.398438 301.753906 161.351562 C 302.347656 163.308594 302.890625 165.273438 303.386719 167.257812 C 303.882812 169.238281 304.332031 171.230469 304.730469 173.234375 C 305.128906 175.238281 305.476562 177.25 305.777344 179.269531 C 306.078125 181.292969 306.328125 183.320312 306.527344 185.351562 C 306.726562 187.386719 306.878906 189.421875 306.976562 191.460938 C 307.078125 193.503906 307.128906 195.542969 307.128906 197.585938 Z M 307.128906 197.585938 " fill-opacity="1" fill-rule="nonzero"/></g><g fill="#ffffff" fill-opacity="1"><g transform="translate(113.116025, 180.470789)"><g><path d="M 14.15625 -22.59375 C 12.136719 -22.59375 9.472656 -21.605469 7.5 -19.335938 L 7.5 -22.148438 L 3.007812 -22.148438 L 3.007812 0 L 7.5 0 L 7.5 -15.835938 C 8.832031 -17.757812 10.703125 -18.941406 12.726562 -18.941406 C 14.15625 -18.941406 15.144531 -18.546875 16.03125 -17.5625 C 16.871094 -16.671875 17.214844 -15.6875 17.214844 -13.269531 L 17.214844 0 L 21.65625 0 L 21.65625 -12.824219 C 21.65625 -15.785156 21.410156 -17.464844 20.421875 -19.042969 C 19.089844 -21.164062 16.921875 -22.59375 14.15625 -22.59375 Z M 14.15625 -22.59375 "/></g></g></g><g fill="#ffffff" fill-opacity="1"><g transform="translate(137.7702, 180.470789)"><g><path d="M 9.273438 -22.59375 C 6.167969 -22.59375 3.652344 -21.605469 1.925781 -19.585938 L 1.925781 -14.800781 C 4.046875 -17.316406 6.511719 -18.449219 8.929688 -18.449219 C 11.542969 -18.449219 12.925781 -17.363281 12.925781 -14.601562 L 12.925781 -13.367188 L 9.027344 -11.988281 C 5.082031 -10.558594 1.480469 -9.226562 1.480469 -4.980469 C 1.480469 -2.070312 3.75 0.445312 6.90625 0.445312 C 8.929688 0.445312 10.953125 -0.296875 12.875 -1.824219 C 13.269531 -0.199219 14.304688 0.445312 16.230469 0.445312 C 17.5625 0.445312 18.398438 0.0976562 20.472656 -1.28125 L 20.472656 -3.945312 C 19.4375 -3.15625 18.597656 -2.761719 18.152344 -2.761719 C 17.5625 -2.761719 17.316406 -3.109375 17.316406 -3.796875 L 17.316406 -15.441406 C 17.316406 -19.683594 14.355469 -22.59375 9.273438 -22.59375 Z M 5.917969 -5.773438 C 5.917969 -7.84375 7.792969 -9.226562 12.925781 -10.953125 L 12.925781 -4.488281 C 11.742188 -3.355469 10.457031 -2.664062 9.078125 -2.664062 C 7.203125 -2.664062 5.917969 -4.046875 5.917969 -5.773438 Z M 5.917969 -5.773438 "/></g></g></g><g fill="#ffffff" fill-opacity="1"><g transform="translate(158.824865, 180.470789)"><g><path d="M 0 -18.648438 L 0 -18.203125 L 3.847656 -18.203125 L 3.847656 -7.894531 C 3.847656 -5.277344 4.144531 -3.699219 4.835938 -2.515625 C 5.917969 -0.640625 8.683594 0.445312 10.703125 0.445312 C 12.382812 0.445312 14.800781 -0.0976562 16.378906 -1.035156 L 16.378906 -5.128906 C 14.996094 -4.242188 13.171875 -3.550781 11.347656 -3.550781 C 10.359375 -3.550781 9.71875 -3.847656 9.226562 -4.292969 C 8.289062 -5.128906 8.238281 -6.414062 8.238281 -7.894531 L 8.238281 -18.203125 L 15.242188 -18.203125 L 15.242188 -22.148438 L 8.238281 -22.148438 L 8.238281 -26.738281 Z M 0 -18.648438 "/></g></g></g><g fill="#ffffff" fill-opacity="1"><g transform="translate(175.934861, 180.470789)"><g><path d="M 17.167969 -22.148438 L 17.167969 -6.3125 C 15.835938 -4.390625 13.960938 -3.207031 11.886719 -3.207031 C 9.125 -3.207031 7.398438 -4.585938 7.398438 -8.929688 L 7.398438 -22.148438 L 2.960938 -22.148438 L 2.960938 -9.570312 C 2.960938 -5.871094 3.402344 -4.390625 4.191406 -3.109375 C 5.574219 -0.839844 7.894531 0.445312 10.457031 0.445312 C 12.726562 0.445312 15.242188 -0.738281 17.167969 -2.8125 L 17.167969 0 L 21.605469 0 L 21.605469 -22.148438 Z M 17.167969 -22.148438 "/></g></g></g><g fill="#ffffff" fill-opacity="1"><g transform="translate(200.589036, 180.470789)"><g><path d="M 13.910156 -22.59375 C 11.839844 -22.59375 9.816406 -21.210938 7.300781 -17.066406 L 7.300781 -22.148438 L 2.910156 -22.148438 L 2.910156 0 L 7.300781 0 L 7.300781 -11.789062 C 7.300781 -15.933594 10.359375 -18.398438 12.53125 -18.398438 C 13.761719 -18.398438 15.488281 -17.464844 16.773438 -16.230469 L 19.089844 -20.078125 C 17.609375 -21.558594 15.738281 -22.59375 13.910156 -22.59375 Z M 13.910156 -22.59375 "/></g></g></g><g fill="#ffffff" fill-opacity="1"><g transform="translate(219.62206, 180.470789)"><g><path d="M 9.273438 -22.59375 C 6.167969 -22.59375 3.652344 -21.605469 1.925781 -19.585938 L 1.925781 -14.800781 C 4.046875 -17.316406 6.511719 -18.449219 8.929688 -18.449219 C 11.542969 -18.449219 12.925781 -17.363281 12.925781 -14.601562 L 12.925781 -13.367188 L 9.027344 -11.988281 C 5.082031 -10.558594 1.480469 -9.226562 1.480469 -4.980469 C 1.480469 -2.070312 3.75 0.445312 6.90625 0.445312 C 8.929688 0.445312 10.953125 -0.296875 12.875 -1.824219 C 13.269531 -0.199219 14.304688 0.445312 16.230469 0.445312 C 17.5625 0.445312 18.398438 0.0976562 20.472656 -1.28125 L 20.472656 -3.945312 C 19.4375 -3.15625 18.597656 -2.761719 18.152344 -2.761719 C 17.5625 -2.761719 17.316406 -3.109375 17.316406 -3.796875 L 17.316406 -15.441406 C 17.316406 -19.683594 14.355469 -22.59375 9.273438 -22.59375 Z M 5.917969 -5.773438 C 5.917969 -7.84375 7.792969 -9.226562 12.925781 -10.953125 L 12.925781 -4.488281 C 11.742188 -3.355469 10.457031 -2.664062 9.078125 -2.664062 C 7.203125 -2.664062 5.917969 -4.046875 5.917969 -5.773438 Z M 5.917969 -5.773438 "/></g></g></g><g fill="#ffffff" fill-opacity="1"><g transform="translate(240.676725, 180.470789)"><g><path d="M 3.207031 -33.644531 L 3.207031 0 L 7.597656 0 L 7.597656 -33.644531 Z M 3.207031 -33.644531 "/></g></g></g><g fill="#ffffff" fill-opacity="1"><g transform="translate(127.848821, 249.239752)"><g><path d="M 9.964844 -33.644531 L 9.964844 0 L 14.800781 0 L 14.800781 -33.644531 Z M 9.964844 -33.644531 "/></g></g></g><g fill="#ffffff" fill-opacity="1"><g transform="translate(152.502995, 249.239752)"><g><path d="M 12.53125 -34.085938 C 7.152344 -34.085938 1.480469 -28.316406 1.480469 -16.820312 C 1.480469 -6.511719 5.871094 0.445312 12.332031 0.445312 C 18.300781 0.445312 23.183594 -6.117188 23.183594 -16.921875 C 23.183594 -26.738281 18.84375 -34.085938 12.53125 -34.085938 Z M 6.3125 -16.921875 C 6.3125 -25.109375 8.929688 -29.5 12.285156 -29.5 C 15.738281 -29.5 18.351562 -25.160156 18.351562 -16.773438 C 18.351562 -8.632812 15.882812 -4.144531 12.285156 -4.144531 C 8.683594 -4.144531 6.3125 -8.683594 6.3125 -16.921875 Z M 6.3125 -16.921875 "/></g></g></g><g fill="#ffffff" fill-opacity="1"><g transform="translate(177.157169, 249.239752)"><g><path d="M 12.53125 -34.085938 C 7.152344 -34.085938 1.480469 -28.316406 1.480469 -16.820312 C 1.480469 -6.511719 5.871094 0.445312 12.332031 0.445312 C 18.300781 0.445312 23.183594 -6.117188 23.183594 -16.921875 C 23.183594 -26.738281 18.84375 -34.085938 12.53125 -34.085938 Z M 6.3125 -16.921875 C 6.3125 -25.109375 8.929688 -29.5 12.285156 -29.5 C 15.738281 -29.5 18.351562 -25.160156 18.351562 -16.773438 C 18.351562 -8.632812 15.882812 -4.144531 12.285156 -4.144531 C 8.683594 -4.144531 6.3125 -8.683594 6.3125 -16.921875 Z M 6.3125 -16.921875 "/></g></g></g><g fill="#ffffff" fill-opacity="1"><g transform="translate(201.811343, 249.239752)"><g><path d="M 27.378906 -34.136719 L 5.230469 0.445312 L 8.929688 0.445312 L 31.078125 -34.136719 Z M 10.308594 -34.039062 C 6.214844 -34.039062 2.8125 -30.78125 2.8125 -26.539062 C 2.8125 -22.296875 6.214844 -19.042969 10.308594 -19.042969 C 14.40625 -19.042969 17.808594 -22.296875 17.808594 -26.539062 C 17.808594 -30.734375 14.355469 -34.039062 10.308594 -34.039062 Z M 6.363281 -26.492188 C 6.363281 -28.710938 8.140625 -30.386719 10.261719 -30.386719 C 12.382812 -30.386719 14.15625 -28.660156 14.15625 -26.492188 C 14.15625 -24.320312 12.429688 -22.59375 10.261719 -22.59375 C 8.089844 -22.59375 6.363281 -24.320312 6.363281 -26.492188 Z M 26.195312 -14.652344 C 22.101562 -14.652344 18.695312 -11.246094 18.695312 -7.152344 C 18.695312 -3.058594 22.101562 0.34375 26.195312 0.34375 C 30.289062 0.34375 33.691406 -3.058594 33.691406 -7.152344 C 33.691406 -11.394531 30.238281 -14.652344 26.195312 -14.652344 Z M 22.246094 -7.105469 C 22.246094 -9.273438 23.972656 -11 26.097656 -11 C 28.265625 -11 30.042969 -9.273438 30.042969 -7.105469 C 30.042969 -4.933594 28.316406 -3.207031 26.144531 -3.207031 C 23.925781 -3.207031 22.246094 -4.980469 22.246094 -7.105469 Z M 22.246094 -7.105469 "/></g></g></g></svg>