<svg xmlns="http://www.w3.org/2000/svg" xmlns:xlink="http://www.w3.org/1999/xlink" width="500" zoomAndPan="magnify" viewBox="0 0 375 374.999991" height="500" preserveAspectRatio="xMidYMid meet" version="1.0"><defs><clipPath id="3b59f67043"><path d="M 0 13 L 274 13 L 274 345 L 0 345 Z M 0 13 " clip-rule="nonzero"/></clipPath><clipPath id="deb2c49627"><path d="M 228.542969 -31.175781 L 363.246094 103.53125 L 60.957031 405.816406 L -73.746094 271.113281 Z M 228.542969 -31.175781 " clip-rule="nonzero"/></clipPath><clipPath id="a196d43666"><path d="M 363.4375 103.71875 L 228.734375 -30.984375 L -73.554688 271.304688 L 61.148438 406.007812 Z M 363.4375 103.71875 " clip-rule="nonzero"/></clipPath></defs><g clip-path="url(#3b59f67043)"><g clip-path="url(#deb2c49627)"><g clip-path="url(#a196d43666)"><path fill="#3e6541" d="M 203.089844 88.304688 C 203.332031 88.332031 203.574219 88.253906 203.789062 88.089844 C 204.492188 87.550781 205.136719 86.957031 205.785156 86.367188 C 214.195312 80.921875 223.523438 76.929688 231.796875 71.296875 C 245.035156 62.265625 256.546875 48.8125 263.90625 34.660156 C 266.386719 29.917969 269 25.308594 271.101562 20.347656 C 271.453125 19.566406 272.207031 18.269531 272.773438 17.058594 C 273.230469 16.0625 273.5 15.089844 273.476562 14.363281 C 273.449219 13.90625 273.207031 13.714844 273.042969 13.554688 C 272.800781 13.367188 272.53125 13.3125 272.179688 13.390625 C 272.046875 13.417969 271.855469 13.5 271.667969 13.6875 C 271.5625 13.796875 271.398438 14.011719 271.292969 14.121094 C 270.644531 14.820312 269.996094 15.523438 269.351562 16.222656 C 267.785156 17.949219 266.089844 19.59375 264.308594 21.101562 C 259.105469 25.441406 253.714844 29.917969 247.917969 33.449219 C 235.652344 40.96875 225.140625 51.644531 217.484375 63.828125 C 213.980469 69.4375 211.742188 75.449219 208.078125 80.625 L 208.050781 80.652344 C 202.144531 85.097656 196.429688 89.84375 191.039062 94.964844 C 186 99.789062 181.28125 104.9375 177.074219 110.546875 C 175.539062 112.566406 174.109375 114.644531 172.734375 116.773438 C 173.8125 112.835938 174.730469 108.902344 175.484375 105.019531 C 176.457031 99.953125 177.75 94.667969 177.777344 89.464844 C 177.832031 80.945312 176.023438 72.996094 174.542969 64.71875 C 173.894531 61.214844 172.65625 57.816406 171.871094 54.339844 C 171.011719 50.511719 170.496094 46.550781 169.609375 42.695312 C 169.070312 40.324219 168.636719 37.949219 168.152344 35.578125 C 168.019531 34.851562 167.882812 34.175781 167.800781 33.449219 C 167.773438 33.152344 167.882812 32.613281 167.855469 32.316406 C 167.828125 32.019531 167.75 31.777344 167.667969 31.640625 C 167.480469 31.347656 167.234375 31.210938 166.9375 31.183594 C 166.695312 31.15625 166.375 31.15625 166.023438 31.453125 C 165.457031 31.910156 165.050781 32.746094 164.757812 33.746094 C 164.433594 34.878906 164.242188 36.253906 164.054688 37.035156 C 162.789062 41.644531 161.222656 46.171875 160.171875 50.835938 C 157.371094 63.398438 155.859375 76.175781 159.121094 88.871094 C 161.0625 96.476562 164.40625 103.160156 166.320312 109.980469 C 168.042969 116.125 168.582031 122.378906 165.726562 129.496094 C 161.25 139.148438 158.421875 148.988281 155.96875 159.421875 C 151.574219 178.15625 148.5 198.859375 139.121094 224.035156 C 135.832031 232.878906 131.867188 241.261719 127.3125 249.160156 C 127.394531 248.863281 127.472656 248.566406 127.554688 248.269531 C 129.792969 239.402344 131.679688 226.570312 130.007812 217.511719 C 127.984375 206.8125 121.460938 193.710938 118.011719 183.089844 C 116.609375 178.773438 115.964844 174.460938 115.476562 169.988281 C 115.371094 169.015625 115.425781 167.5625 115.316406 166.214844 C 115.234375 165.160156 115.019531 164.191406 114.640625 163.492188 C 114.398438 163.03125 114.074219 162.925781 113.859375 162.871094 C 113.511719 162.789062 113.160156 162.871094 112.835938 163.246094 C 112.726562 163.355469 112.621094 163.570312 112.566406 163.839844 C 112.511719 164.164062 112.484375 164.785156 112.40625 165.082031 C 112.214844 165.96875 112.054688 166.832031 111.839844 167.695312 C 111.246094 170.285156 110.300781 172.789062 109.546875 175.324219 C 109.25 176.320312 108.980469 177.347656 108.710938 178.316406 C 108.496094 178.371094 108.308594 178.558594 108.335938 178.800781 C 108.335938 179.234375 108.308594 179.636719 108.308594 180.070312 C 107.417969 183.976562 106.796875 187.832031 106.421875 191.824219 C 106.203125 191.875 106.015625 192.066406 106.042969 192.308594 C 105.960938 194.222656 105.933594 196.136719 106.042969 198.023438 C 106.015625 198.695312 105.988281 199.425781 105.988281 200.125 C 105.636719 213.578125 109.628906 225.113281 113.914062 237.648438 C 115.398438 241.992188 117.257812 246.382812 118.28125 250.859375 C 119.25 255.171875 119.441406 259.511719 117.632812 263.90625 C 117.472656 264.285156 117.285156 264.6875 117.09375 265.039062 C 104.34375 282.425781 88.519531 297.441406 70.621094 310.542969 C 82.292969 297.035156 87.980469 275.5 89.382812 258.890625 C 89.410156 258.542969 89.4375 258.191406 89.464844 257.839844 C 90.03125 251.183594 89.570312 244.738281 88.441406 238.164062 C 88.386719 237.730469 88.386719 236.976562 88.277344 236.273438 C 88.195312 235.65625 88.089844 235.0625 87.847656 234.65625 C 87.632812 234.28125 87.363281 234.011719 87.011719 233.875 C 86.660156 233.742188 86.230469 233.6875 85.71875 233.875 C 79.382812 236.382812 73.910156 243.957031 69.757812 253.175781 C 63.613281 266.765625 60.269531 283.855469 60.753906 292.695312 C 60.96875 296.792969 62.613281 301.296875 63.503906 305.691406 C 64.230469 309.277344 64.449219 312.78125 62.722656 315.90625 C 45.953125 326.257812 16.734375 339.035156 -0.0625 339.65625 C -0.898438 339.683594 -1.542969 340.382812 -1.515625 341.21875 C -1.488281 341.894531 -1.058594 342.433594 -0.4375 342.621094 C -0.4375 342.730469 -0.359375 342.8125 -0.332031 342.890625 C -0.492188 342.890625 -0.628906 342.917969 -0.789062 342.917969 C -1.085938 342.945312 -1.273438 343.1875 -1.273438 343.457031 C -1.246094 343.753906 -1.003906 343.941406 -0.734375 343.941406 C 1.207031 343.835938 3.09375 343.511719 5.007812 343.160156 C 5.195312 343.132812 5.355469 342.972656 5.382812 342.785156 C 6.707031 342.59375 8.054688 342.378906 9.320312 342.082031 C 9.589844 342.027344 9.777344 341.730469 9.699219 341.488281 C 9.671875 341.460938 9.699219 341.4375 9.671875 341.410156 C 17.488281 339.738281 26.519531 336.691406 35.359375 333.023438 C 35.601562 333.105469 35.898438 333.078125 36.140625 332.945312 C 37.410156 332.269531 38.648438 331.625 39.917969 331.058594 C 40.265625 330.921875 40.617188 330.734375 40.96875 330.597656 C 42.855469 329.789062 44.769531 329.0625 46.738281 328.441406 C 48.515625 328.925781 50.160156 329.871094 51.722656 330.894531 C 53.476562 332.054688 55.175781 333.269531 57.007812 334.183594 C 71.511719 341.410156 84.261719 345.425781 100.730469 343.726562 C 102.621094 343.511719 113.535156 341.542969 117.632812 339.550781 C 118.550781 339.117188 119.199219 338.632812 119.46875 338.199219 C 119.738281 337.824219 119.789062 337.445312 119.738281 337.070312 C 119.65625 336.449219 119.277344 335.800781 118.605469 335.128906 C 117.851562 334.375 116.636719 333.589844 115.179688 332.78125 C 109.84375 329.925781 101 327.230469 98.980469 326.71875 C 84.261719 323.050781 68.355469 321.488281 53.449219 324.535156 L 53.53125 324.507812 C 56.117188 323.160156 58.707031 321.757812 61.238281 320.246094 C 63.316406 319.035156 65.390625 317.765625 67.414062 316.445312 C 68.058594 316.015625 68.707031 315.582031 69.378906 315.125 C 69.703125 314.910156 70 314.667969 70.351562 314.425781 C 70.730469 314.15625 71.105469 313.886719 71.484375 313.617188 C 72.667969 312.753906 73.855469 311.890625 74.988281 311.027344 C 77.65625 309.007812 80.324219 306.929688 82.941406 304.800781 C 84.207031 303.75 85.472656 302.699219 86.714844 301.675781 C 87.117188 301.429688 87.523438 301.1875 87.953125 300.917969 C 88.007812 300.972656 88.0625 300.972656 88.144531 301 C 115.261719 310.972656 145.777344 310.113281 169.824219 292.964844 C 171.199219 291.96875 180.390625 285.796875 184.40625 282.535156 C 185.59375 281.5625 186.320312 280.78125 186.511719 280.378906 C 186.753906 279.867188 186.671875 279.460938 186.457031 279.136719 C 186.292969 278.867188 186.050781 278.625 185.621094 278.515625 C 185.324219 278.4375 184.894531 278.382812 184.40625 278.382812 C 183.921875 278.382812 183.382812 278.4375 183.058594 278.382812 C 180.847656 278.058594 178.664062 277.871094 176.535156 277.304688 C 169.796875 275.523438 163.8125 274.609375 156.832031 274.851562 C 131.328125 275.769531 94.371094 294.878906 94.371094 294.878906 C 111.191406 279.246094 125.289062 261.320312 135.480469 240.507812 C 135.507812 240.480469 135.507812 240.480469 135.535156 240.453125 C 140.332031 235.601562 146.855469 232.742188 153.785156 230.667969 C 160.847656 228.566406 168.3125 227.246094 174.785156 225.628906 C 186.160156 222.769531 196.699219 217.675781 205.839844 210.316406 C 210.90625 206.21875 215.328125 201.582031 219.507812 196.539062 C 220.746094 195.03125 221.933594 193.519531 223.144531 191.984375 C 223.65625 191.363281 224.144531 190.71875 224.628906 190.070312 C 224.65625 190.042969 225.085938 189.667969 225.246094 189.503906 C 225.4375 189.261719 225.519531 189.074219 225.542969 188.882812 C 225.597656 188.613281 225.542969 188.34375 225.410156 188.15625 C 225.300781 187.941406 225.085938 187.726562 224.707031 187.617188 C 224.222656 187.507812 223.550781 187.589844 222.796875 187.859375 C 221.636719 188.316406 220.179688 189.289062 219.425781 189.558594 C 216 190.824219 212.199219 191.875 208.589844 192.523438 C 201.875 193.683594 195.757812 194.304688 189.449219 197.105469 C 175 203.574219 164.863281 214.683594 152.949219 224.65625 C 148.257812 228.59375 143 231.640625 137.960938 235.117188 C 139.46875 231.773438 140.84375 228.351562 142.164062 224.871094 C 148.957031 206.648438 152.464844 190.746094 155.535156 176.242188 C 155.617188 176.160156 155.726562 176.050781 155.777344 175.945312 C 160.066406 168.53125 166.535156 163.894531 173.785156 160.308594 C 181.171875 156.644531 189.339844 154.082031 196.808594 150.929688 C 207.375 146.453125 217.511719 137.234375 223.46875 127.554688 C 225.273438 124.617188 228.804688 118.875 229.589844 115.398438 C 229.722656 115.15625 229.859375 114.96875 229.992188 114.726562 C 230.128906 114.480469 230.046875 114.1875 229.832031 114.023438 C 229.589844 113.890625 229.292969 113.96875 229.128906 114.1875 C 228.941406 114.050781 228.699219 114.023438 228.402344 114.050781 C 228.265625 114.078125 228.050781 114.132812 227.808594 114.320312 C 227.59375 114.480469 227.242188 114.886719 227 115.019531 C 226.328125 115.480469 225.597656 115.828125 224.925781 116.234375 C 222.875 117.421875 220.773438 118.28125 218.589844 119.171875 C 212.011719 121.867188 205.003906 123 198.9375 126.910156 C 187.886719 134.082031 181.550781 145.050781 173.140625 154.757812 C 168.234375 160.417969 161.980469 164.570312 156.882812 169.988281 C 157.613281 166.5625 158.339844 163.195312 159.121094 159.933594 C 165.644531 132.058594 175.027344 108.550781 212.550781 81.109375 Z M 51.589844 327.6875 C 51.589844 327.6875 51.589844 327.742188 51.589844 327.742188 C 51.507812 327.714844 51.480469 327.6875 51.398438 327.660156 Z M 104.371094 341.003906 C 102.457031 341.355469 100.921875 341.597656 100.328125 341.707031 C 84.289062 343.351562 71.859375 339.386719 57.734375 332.378906 C 57.195312 332.109375 56.65625 331.785156 56.117188 331.460938 C 57.035156 331.839844 57.976562 332.1875 58.894531 332.511719 C 62.101562 333.726562 65.257812 334.992188 68.570312 335.9375 C 78.089844 338.660156 88.332031 341.140625 98.277344 341.382812 C 100.328125 341.4375 102.375 341.167969 104.371094 341.003906 Z M 110.542969 338.390625 C 107.148438 338.605469 103.699219 338.496094 100.328125 338.253906 C 92.457031 337.714844 84.800781 336.261719 77.035156 334.75 C 69.597656 333.292969 61.457031 331.894531 54.285156 328.925781 C 56.441406 329.574219 58.757812 329.953125 60.890625 330.519531 C 64.527344 331.460938 68.113281 332.511719 71.835938 333.214844 C 76.660156 334.101562 81.644531 334.507812 86.5 335.101562 C 92.292969 335.828125 98.144531 336.394531 103.941406 337.230469 C 106.097656 337.609375 108.335938 338.175781 110.542969 338.390625 Z M 54.070312 326.5 C 68.570312 323.644531 83.992188 325.207031 98.332031 328.765625 C 100.273438 329.25 108.875 331.867188 114.074219 334.640625 C 115.316406 335.289062 116.367188 335.964844 117.015625 336.609375 C 117.070312 336.664062 117.121094 336.71875 117.175781 336.773438 C 116.179688 336.207031 115.046875 335.882812 113.996094 335.371094 C 112.835938 334.804688 111.730469 334.023438 110.519531 333.511719 C 107.148438 332.136719 103.347656 331.625 99.816406 330.789062 C 97.09375 330.167969 94.425781 329.332031 91.703125 328.875 C 87.09375 328.09375 82.402344 327.875 77.738281 327.527344 C 72.5625 327.148438 67.386719 326.664062 62.15625 326.449219 C 59.433594 326.367188 56.765625 326.5 54.070312 326.5 Z M 116.179688 337.390625 C 115.882812 337.417969 115.558594 337.417969 115.289062 337.417969 C 113.160156 336.90625 111.082031 336.125 108.953125 335.613281 C 106.824219 335.101562 104.640625 334.859375 102.484375 334.425781 C 100.140625 333.96875 97.820312 333.320312 95.476562 332.917969 C 90.300781 332.054688 84.988281 331.703125 79.785156 331.03125 C 71.96875 330.007812 64.125 328.792969 56.332031 327.472656 C 58.246094 327.445312 60.1875 327.390625 62.101562 327.472656 C 67.277344 327.6875 72.453125 328.171875 77.628906 328.550781 C 82.238281 328.902344 86.902344 329.089844 91.484375 329.898438 C 94.207031 330.355469 96.878906 331.191406 99.546875 331.8125 C 103.023438 332.59375 106.769531 333.105469 110.085938 334.480469 C 111.273438 334.964844 112.351562 335.722656 113.511719 336.285156 C 114.371094 336.71875 115.316406 337.015625 116.179688 337.390625 Z M 111.648438 337.445312 C 109.144531 337.3125 106.554688 336.609375 104.074219 336.234375 C 98.277344 335.398438 92.429688 334.832031 86.632812 334.101562 C 81.78125 333.511719 76.820312 333.132812 72.023438 332.214844 C 68.355469 331.515625 64.796875 330.492188 61.1875 329.519531 C 60.082031 329.222656 58.949219 329.007812 57.816406 328.738281 C 65.09375 329.980469 72.398438 331.085938 79.679688 332.054688 C 84.855469 332.753906 90.109375 333.105469 95.3125 333.996094 C 97.660156 334.398438 99.949219 335.019531 102.296875 335.476562 C 104.425781 335.882812 106.609375 336.125 108.710938 336.664062 C 109.683594 336.878906 110.679688 337.175781 111.648438 337.445312 Z M 109.386719 339.496094 C 107.902344 339.683594 106.394531 339.84375 104.910156 339.925781 C 102.699219 340.089844 100.488281 340.410156 98.277344 340.359375 C 88.441406 340.113281 78.277344 337.660156 68.839844 334.964844 C 66.550781 334.292969 64.339844 333.484375 62.128906 332.675781 C 67.035156 333.96875 72.078125 334.914062 76.820312 335.828125 C 84.585938 337.339844 92.320312 338.765625 100.21875 339.332031 C 103.265625 339.523438 106.339844 339.628906 109.386719 339.496094 Z M 85.472656 238.917969 C 84.691406 244.121094 82.859375 249.402344 81.96875 254.445312 C 78.574219 273.476562 73.640625 292.425781 65.902344 310.191406 C 69.113281 294.53125 73.800781 278.949219 77.820312 263.503906 C 80.027344 254.984375 81.351562 246.601562 85.472656 238.917969 Z M 87.335938 256.035156 C 87.308594 256.546875 87.28125 257.113281 87.226562 257.652344 C 87.199219 258.003906 87.171875 258.351562 87.144531 258.703125 C 85.742188 275.523438 79.867188 297.578125 67.574219 310.625 C 70.835938 305.042969 73.101562 298.949219 75.742188 293.019531 C 80.757812 281.589844 85.691406 268.894531 87.335938 256.035156 Z M 85.796875 236.113281 C 85.796875 236.222656 85.796875 236.273438 85.796875 236.382812 C 80.675781 244.6875 79.300781 253.878906 76.875 263.257812 C 73.289062 277.089844 69.136719 291 66.039062 304.988281 C 67.898438 287.441406 70.40625 269.191406 77.304688 253.015625 C 79.734375 247.140625 81.917969 241.179688 85.796875 236.113281 Z M 86.390625 239.726562 C 88.816406 257.734375 81.941406 276.46875 74.773438 292.589844 C 72.617188 297.441406 70.730469 302.402344 68.328125 307.117188 C 75.257812 290.269531 79.785156 272.480469 82.996094 254.605469 C 83.855469 249.753906 85.554688 244.714844 86.390625 239.726562 Z M 78.734375 241.667969 C 76.742188 244.792969 75.203125 248.433594 73.773438 251.371094 C 69.328125 260.292969 64.71875 279.730469 64.421875 290 C 64.339844 293.75 64.367188 297.441406 64.285156 301.132812 C 63.503906 298.195312 62.695312 295.285156 62.5625 292.5625 C 62.128906 283.9375 65.417969 267.222656 71.402344 253.960938 C 73.558594 249.269531 76.011719 244.984375 78.734375 241.667969 Z M 83.371094 237.785156 C 80.40625 242.367188 78.464844 247.542969 76.308594 252.613281 C 69.8125 267.894531 67.144531 285.015625 65.335938 301.648438 C 65.417969 297.792969 65.363281 293.964844 65.472656 290.082031 C 65.742188 279.945312 70.296875 260.726562 74.71875 251.882812 C 75.984375 249.324219 77.28125 246.25 78.921875 243.417969 C 80.136719 241.234375 81.59375 239.242188 83.371094 237.785156 Z M 90.894531 299.867188 C 90.894531 299.867188 90.867188 299.894531 90.867188 299.894531 L 90.757812 299.839844 Z M 164.214844 294.097656 C 162.222656 295.339844 160.199219 296.445312 158.097656 297.46875 C 144.753906 301.808594 126.664062 301.835938 114.371094 301.996094 C 106.636719 302.078125 99.761719 302.96875 92.511719 300.136719 C 108.628906 303.371094 124.886719 299.625 140.953125 297.847656 C 149.011719 297.011719 156.832031 296.578125 164.214844 294.097656 Z M 175.917969 286.121094 C 172.464844 288.546875 169.148438 290.78125 168.394531 291.320312 L 168.367188 291.347656 C 159.742188 295.445312 150.441406 295.796875 140.84375 296.820312 C 126.152344 298.410156 111.328125 301.699219 96.609375 299.761719 C 103.292969 299.707031 110.058594 299.625 116.636719 298.871094 C 128.820312 297.46875 140.738281 294.125 152.734375 291.511719 C 161.414062 289.625 168.558594 288.949219 175.917969 286.121094 Z M 175.917969 279.378906 C 163.273438 280.324219 151.089844 284.851562 138.875 288.222656 C 124.105469 292.320312 109.277344 294.960938 94.15625 297.253906 C 94.558594 297.011719 94.992188 296.792969 95.449219 296.550781 C 97.066406 296.550781 98.816406 296.308594 100.625 295.90625 C 105.289062 294.855469 110.25 292.859375 113.699219 292.105469 C 124.914062 289.679688 135.9375 287.171875 146.882812 283.71875 C 154.648438 281.238281 161.710938 278.273438 169.6875 277.953125 C 171.683594 278.328125 173.707031 278.785156 175.753906 279.324219 C 175.835938 279.351562 175.863281 279.378906 175.917969 279.378906 Z M 181.144531 280.296875 C 155.160156 287.359375 129.578125 295.6875 102.566406 297.308594 C 100.21875 297.441406 97.902344 297.820312 95.582031 298.089844 C 110.300781 295.824219 124.75 293.183594 139.171875 289.21875 C 152.8125 285.445312 166.347656 280.269531 180.578125 280.214844 C 180.769531 280.242188 180.957031 280.269531 181.144531 280.296875 Z M 152.03125 300.136719 C 136.316406 306.203125 119.007812 306.796875 102.375 303.15625 C 106.257812 303.371094 110.195312 303.101562 114.398438 303.046875 C 124.914062 302.886719 139.605469 302.859375 152.03125 300.136719 Z M 183.085938 280.835938 C 182.546875 281.265625 181.925781 281.777344 181.199219 282.34375 C 180.824219 282.613281 180.472656 282.910156 180.09375 283.179688 C 171.089844 287.816406 162.949219 288.304688 152.542969 290.566406 C 140.601562 293.183594 128.714844 296.496094 116.554688 297.925781 C 110.652344 298.601562 104.613281 298.707031 98.601562 298.789062 C 99.949219 298.628906 101.296875 298.464844 102.671875 298.386719 C 131.195312 296.605469 158.179688 287.414062 185.730469 280.136719 Z M 165.566406 277.332031 C 159.066406 278.273438 153.054688 280.675781 146.53125 282.777344 C 135.613281 286.253906 124.617188 288.734375 113.457031 291.160156 C 110.003906 291.914062 105.046875 293.910156 100.382812 294.960938 C 99.546875 295.148438 98.738281 295.3125 97.929688 295.417969 C 104.964844 292.695312 112.269531 290.78125 119.414062 288.4375 C 133.59375 283.691406 147.558594 278.894531 162.355469 277.035156 C 163.433594 277.089844 164.511719 277.195312 165.566406 277.332031 Z M 155.886719 276.980469 C 143.324219 279.246094 131.328125 283.371094 119.117188 287.386719 C 113.996094 289.058594 108.792969 290.539062 103.644531 292.238281 C 120.0625 284.070312 137.988281 277.789062 155.886719 276.980469 Z M 112.566406 175.164062 C 113.457031 183.65625 117.070312 191.6875 119.0625 199.9375 C 122.808594 215.222656 124.050781 231.074219 122.296875 246.734375 C 121.949219 249.726562 122 252.960938 121.652344 256.0625 C 121.597656 256.222656 121.597656 256.386719 121.542969 256.546875 C 121.570312 256.035156 121.570312 255.550781 121.597656 255.039062 C 121.757812 251.261719 121.730469 247.515625 121.730469 243.742188 C 121.679688 228.808594 119.953125 214.359375 116.90625 199.722656 C 115.289062 191.851562 112.378906 183.386719 112.566406 175.164062 Z M 126.316406 211.449219 C 126.988281 213.632812 127.527344 215.789062 127.933594 217.808594 C 129.550781 226.597656 127.714844 239.050781 125.53125 247.707031 C 124.992188 249.863281 124.402344 252.074219 123.671875 254.308594 C 124.5625 250.453125 125.074219 246.492188 125.667969 242.664062 C 127.152344 232.664062 127.769531 221.800781 126.316406 211.449219 Z M 108.359375 191.769531 C 108.550781 195.40625 108.898438 199.046875 109.414062 202.632812 C 110.652344 211.582031 113.402344 220.53125 115.53125 229.292969 C 116.851562 234.765625 118.011719 240.183594 118.792969 245.765625 C 117.984375 243.070312 117.175781 240.371094 116.527344 237.625 C 114.992188 230.964844 113.96875 224.171875 112.214844 217.566406 C 111.03125 213.09375 109.0625 208.859375 107.875 204.332031 C 107.820312 202.929688 107.796875 201.554688 107.847656 200.097656 C 107.929688 197.269531 108.089844 194.464844 108.359375 191.769531 Z M 110.085938 180.933594 C 110.003906 182.308594 109.980469 183.679688 110.085938 184.976562 C 110.328125 188.882812 111.136719 192.820312 111.675781 196.703125 C 113.214844 208.265625 115.476562 219.644531 117.796875 231.074219 C 118.6875 235.574219 119.304688 240.023438 119.710938 244.523438 C 118.902344 239.292969 117.824219 234.226562 116.582031 229.050781 C 114.453125 220.289062 111.757812 211.394531 110.492188 202.472656 C 109.710938 196.890625 109.304688 191.203125 109.222656 185.515625 C 109.441406 184.003906 109.734375 182.46875 110.085938 180.933594 Z M 111.570312 176.699219 C 111.757812 184.492188 114.398438 192.46875 115.9375 199.882812 C 118.957031 214.441406 120.707031 228.808594 120.707031 243.6875 C 120.707031 244.121094 120.707031 244.550781 120.734375 244.957031 C 120.332031 240.238281 119.710938 235.574219 118.765625 230.855469 C 116.503906 219.425781 114.210938 208.078125 112.648438 196.539062 C 112.136719 192.683594 111.300781 188.777344 111.082031 184.894531 C 110.949219 182.332031 111.136719 179.503906 111.570312 176.699219 Z M 121.246094 197.589844 C 122.164062 199.910156 123.105469 202.253906 123.96875 204.574219 C 126.960938 216.839844 126.421875 230.316406 124.617188 242.421875 C 124.480469 243.257812 124.375 244.066406 124.265625 244.929688 C 124.320312 244.445312 124.375 244.011719 124.402344 243.554688 C 126.046875 228.484375 124.804688 212.472656 121.246094 197.589844 Z M 108.253906 208.96875 C 109.277344 211.933594 110.4375 214.816406 111.246094 217.835938 C 112.726562 223.308594 113.671875 228.941406 114.832031 234.46875 C 111.917969 225.898438 109.25 217.730469 108.253906 208.96875 Z M 113.402344 170.929688 C 113.753906 174.03125 114.210938 177.078125 114.9375 180.070312 C 114.9375 180.070312 114.886719 180.070312 114.886719 180.070312 C 114.617188 180.175781 114.453125 180.445312 114.5625 180.714844 C 116.179688 185.675781 118.363281 190.339844 119.65625 195.40625 C 122.648438 206.917969 124.183594 219.238281 124.078125 231.316406 C 123.96875 220.640625 122.59375 209.992188 120.035156 199.613281 C 117.796875 190.476562 113.5625 181.550781 113.375 171.980469 C 113.375 171.660156 113.402344 171.308594 113.402344 170.929688 Z M 219.882812 191.632812 C 218.429688 192.765625 216.917969 193.84375 215.300781 194.707031 C 213.007812 195.921875 210.476562 196.511719 208.265625 197.859375 C 195.378906 205.785156 182.277344 213.65625 168.773438 220.476562 C 164.703125 222.554688 160.523438 224.359375 156.316406 226.140625 C 155.753906 226.382812 155.132812 226.625 154.539062 226.839844 C 157.289062 225.492188 159.769531 223.605469 162.355469 222.042969 C 167.828125 218.726562 173.328125 215.546875 178.800781 212.230469 C 187.832031 206.757812 196.96875 201.175781 206.511719 196.648438 C 210.207031 194.894531 214.304688 193.710938 218.132812 192.253906 C 218.777344 192.039062 219.316406 191.824219 219.882812 191.632812 Z M 208.347656 194.761719 C 207.589844 195.085938 206.863281 195.382812 206.136719 195.730469 C 196.566406 200.289062 187.398438 205.894531 178.316406 211.367188 C 172.84375 214.683594 167.34375 217.863281 161.871094 221.179688 C 160.550781 221.960938 159.257812 222.878906 157.9375 223.714844 C 160.390625 221.851562 162.789062 219.9375 165.320312 218.214844 C 171.710938 213.875 178.476562 210.074219 184.921875 205.785156 C 190.257812 202.226562 196.132812 197.484375 202.496094 195.703125 C 204.4375 195.382812 206.351562 195.085938 208.347656 194.761719 Z M 202.765625 209.992188 C 194.21875 216.542969 184.488281 221.097656 174.027344 223.738281 C 170.066406 224.738281 165.808594 225.601562 161.46875 226.597656 C 163.652344 225.761719 165.835938 224.925781 168.019531 224.144531 C 175 221.746094 181.902344 219.265625 188.773438 216.488281 C 193.601562 214.574219 198.316406 212.5 202.765625 209.992188 Z M 219.238281 193.414062 L 218.859375 193.898438 C 217.726562 195.085938 216.515625 196.242188 215.246094 197.296875 C 212.28125 199.722656 208.964844 201.3125 205.730469 203.253906 C 201.550781 205.707031 197.457031 208.402344 193.113281 210.640625 C 189.476562 212.5 185.675781 213.925781 182.007812 215.761719 C 176.023438 218.78125 169.933594 221.53125 163.757812 224.035156 C 165.617188 223.199219 167.425781 222.3125 169.257812 221.394531 C 182.789062 214.546875 195.917969 206.648438 208.832031 198.75 C 211.015625 197.429688 213.546875 196.835938 215.785156 195.625 C 217.027344 194.976562 218.183594 194.195312 219.289062 193.359375 Z M 197.050781 196.78125 C 192.550781 199.074219 188.316406 202.28125 184.378906 204.925781 C 177.9375 209.210938 171.171875 213.011719 164.78125 217.351562 C 163.972656 217.890625 163.191406 218.457031 162.382812 219.050781 C 170.875 211.421875 179.203125 203.953125 190.015625 199.128906 C 192.359375 198.078125 194.707031 197.347656 197.050781 196.78125 Z M 214.140625 199.425781 C 212.308594 201.417969 210.421875 203.359375 208.453125 205.21875 C 202.335938 209.613281 195.488281 212.742188 188.398438 215.570312 C 182.738281 217.835938 177.101562 219.914062 171.359375 221.933594 C 175.109375 220.289062 178.800781 218.539062 182.492188 216.675781 C 186.132812 214.871094 189.960938 213.414062 193.601562 211.554688 C 197.941406 209.316406 202.066406 206.648438 206.242188 204.140625 C 208.910156 202.550781 211.632812 201.175781 214.140625 199.425781 Z M 215.921875 134.132812 C 210.367188 140.496094 203.171875 146.023438 195.785156 149.148438 C 190.070312 151.574219 183.949219 153.652344 178.074219 156.132812 C 178.882812 155.644531 179.691406 155.214844 180.5 154.835938 C 192.035156 149.390625 204.625 143.972656 214.355469 135.535156 C 214.871094 135.078125 215.410156 134.59375 215.921875 134.132812 Z M 209.128906 124.539062 C 206.324219 126.585938 203.84375 129.121094 201.28125 131.574219 C 197.886719 134.863281 194.21875 137.988281 191.039062 141.492188 C 189.261719 143.433594 187.480469 145.484375 185.648438 147.425781 C 183.140625 149.339844 180.605469 151.277344 178.074219 153.164062 C 178.101562 153.140625 178.152344 153.085938 178.179688 153.058594 C 181.953125 149.339844 185.054688 145.105469 188.53125 141.144531 C 193.574219 135.347656 199.289062 129.738281 205.867188 125.695312 C 206.972656 125.292969 208.050781 124.914062 209.128906 124.539062 Z M 199.746094 128.796875 C 195.351562 132.273438 191.417969 136.316406 187.804688 140.46875 C 184.625 144.136719 181.710938 148.015625 178.34375 151.496094 C 184.839844 143.273438 190.660156 134.699219 199.746094 128.796875 Z M 223.253906 123.726562 C 222.714844 124.644531 222.230469 125.453125 221.769531 126.179688 C 219.34375 129.253906 216.730469 132.140625 213.683594 134.808594 C 204.140625 143.058594 191.902344 148.394531 180.554688 153.703125 C 181.039062 153.328125 181.496094 152.921875 181.980469 152.492188 C 184.164062 151.117188 186.402344 149.796875 188.613281 148.449219 C 195.109375 144.539062 202.066406 141.195312 208.292969 136.804688 C 213.65625 132.949219 218.859375 128.660156 223.253906 123.726562 Z M 226.058594 118.550781 L 226.003906 118.660156 C 221.042969 125.453125 214.546875 131.085938 207.699219 135.941406 C 201.527344 140.335938 194.597656 143.648438 188.101562 147.558594 C 187.238281 148.097656 186.347656 148.609375 185.460938 149.121094 C 185.753906 148.824219 186.050781 148.527344 186.320312 148.207031 C 194.246094 142.167969 202.117188 136.074219 210.097656 130.144531 C 212.578125 128.3125 215.003906 126.371094 217.539062 124.589844 C 220.394531 122.648438 223.414062 120.761719 226.082031 118.472656 Z M 223.523438 119.253906 C 221.394531 120.84375 219.15625 122.273438 217 123.78125 C 214.4375 125.535156 212.011719 127.476562 209.503906 129.335938 C 203.035156 134.132812 196.644531 139.066406 190.257812 143.945312 C 190.796875 143.351562 191.308594 142.789062 191.847656 142.195312 C 195.003906 138.714844 198.667969 135.589844 202.066406 132.300781 C 205.515625 128.957031 208.886719 125.425781 213.117188 123.296875 C 215.167969 122.648438 217.1875 121.976562 219.183594 121.167969 C 220.613281 120.546875 222.066406 119.953125 223.523438 119.253906 Z M 169.957031 115.882812 C 169.957031 115.992188 169.957031 116.046875 169.957031 116.152344 C 169.90625 116.640625 169.824219 117.152344 169.769531 117.636719 C 169.769531 117.691406 169.769531 117.742188 169.769531 117.796875 C 169.742188 117.878906 169.714844 117.960938 169.714844 118.011719 C 169.6875 117.285156 169.636719 116.585938 169.554688 115.855469 C 169.636719 115.882812 169.714844 115.910156 169.796875 115.9375 C 169.851562 115.9375 169.90625 115.9375 169.957031 115.882812 Z M 173.542969 70.890625 C 174.703125 77.011719 175.699219 83.078125 175.671875 89.410156 C 175.621094 94.480469 174.378906 99.65625 173.4375 104.589844 C 172.816406 107.742188 172.089844 110.949219 171.28125 114.132812 L 171.304688 113.941406 C 171.601562 111.328125 171.792969 108.714844 171.980469 106.097656 C 172.140625 104.425781 172.277344 102.730469 172.4375 101.058594 C 173.195312 93.078125 174.246094 85.558594 173.976562 77.523438 C 173.867188 75.367188 173.734375 73.128906 173.542969 70.890625 Z M 163.300781 46.523438 C 161.199219 57.683594 161.277344 69.140625 163.003906 80.40625 C 164.109375 87.390625 165.402344 94.453125 166.75 101.40625 C 167.234375 103.78125 167.722656 106.207031 167.992188 108.632812 C 167.667969 107.5 167.289062 106.367188 166.886719 105.261719 C 166.617188 104.128906 166.347656 103 166.078125 101.867188 C 163.757812 93.023438 162.328125 83.941406 161.359375 74.882812 C 160.847656 70.003906 159.984375 64.988281 160.363281 60.082031 C 160.847656 57.117188 161.441406 54.152344 162.058594 51.214844 C 162.464844 49.621094 162.867188 48.085938 163.300781 46.523438 Z M 163.542969 51.5625 C 163.164062 62.402344 165.050781 73.292969 166.804688 84.15625 C 167.882812 90.734375 168.289062 97.554688 168.636719 104.210938 C 168.691406 105.234375 168.773438 106.234375 168.851562 107.285156 C 168.558594 105.261719 168.152344 103.242188 167.75 101.21875 C 166.375 94.292969 165.078125 87.226562 163.972656 80.246094 C 162.546875 70.730469 162.304688 61.054688 163.542969 51.5625 Z M 165.375 43.097656 C 165.539062 46.441406 165.914062 49.730469 166.183594 53.074219 C 166.886719 61.753906 167.398438 70.351562 168.394531 79.007812 C 169.070312 84.964844 169.742188 91.082031 169.851562 97.066406 C 169.90625 100.25 169.878906 103.402344 169.878906 106.582031 C 169.824219 105.773438 169.769531 104.964844 169.714844 104.15625 C 169.339844 97.472656 168.960938 90.625 167.855469 83.964844 C 165.589844 70.378906 163.164062 56.6875 165.375 43.097656 Z M 166.292969 39.757812 C 167.046875 42.507812 167.855469 45.253906 168.339844 48.113281 C 169.851562 57.601562 170.039062 67.226562 170.605469 76.796875 C 171.199219 86.445312 171.496094 96.285156 170.902344 105.992188 L 170.875 106.179688 C 170.902344 103.132812 170.902344 100.058594 170.875 97.015625 C 170.765625 90.976562 170.066406 84.828125 169.417969 78.84375 C 168.421875 70.191406 167.9375 61.617188 167.234375 52.9375 C 166.832031 48.597656 166.292969 44.175781 166.292969 39.757812 Z M 159.527344 67.332031 C 159.769531 69.894531 160.121094 72.457031 160.390625 74.988281 C 161.199219 82.429688 162.304688 89.898438 163.945312 97.203125 C 162.867188 94.34375 161.84375 91.378906 161.0625 88.28125 C 159.257812 81.296875 158.960938 74.316406 159.527344 67.332031 Z M 170.472656 57.25 C 170.742188 58.222656 171.011719 59.191406 171.28125 60.164062 C 172.0625 65.851562 172.734375 71.96875 172.925781 77.550781 C 173.085938 82.617188 172.707031 87.523438 172.222656 92.429688 C 172.167969 87.203125 171.925781 81.945312 171.601562 76.714844 C 171.226562 70.246094 171.011719 63.722656 170.472656 57.25 Z M 241.90625 40 C 238.269531 43.585938 234.84375 47.4375 231.664062 51.484375 C 226.839844 57.601562 222.390625 63.828125 217.914062 70.300781 C 216 73.074219 214.035156 75.90625 211.796875 78.46875 C 214.332031 74.101562 216.378906 69.355469 219.210938 64.855469 C 225.113281 55.390625 232.878906 46.820312 241.90625 40 Z M 255.386719 44.742188 C 248.648438 54.394531 240.101562 63.15625 230.640625 69.597656 C 226.109375 72.671875 221.3125 75.257812 216.488281 77.875 C 220.53125 74.910156 224.464844 71.835938 228.402344 68.761719 C 238 61.214844 247.378906 53.71875 255.386719 44.742188 Z M 260.15625 37.167969 C 260.132812 37.195312 260.132812 37.25 260.105469 37.277344 C 251.128906 49.433594 239.617188 58.625 227.753906 67.953125 C 223.980469 70.917969 220.207031 73.832031 216.324219 76.6875 C 216.675781 76.285156 217 75.851562 217.296875 75.449219 C 220.800781 72.644531 224.492188 69.976562 227.917969 67.144531 C 236.300781 60.21875 244.199219 52.804688 252.097656 45.28125 C 255.117188 42.425781 257.757812 39.890625 260.15625 37.167969 Z M 249.347656 34.929688 C 242.445312 41.777344 236.191406 49.273438 230.476562 56.980469 C 227.378906 61.160156 223.28125 65.203125 220.261719 69.464844 C 219.53125 70.515625 218.832031 71.539062 218.160156 72.535156 C 217.566406 73.128906 216.972656 73.722656 216.351562 74.289062 C 217.160156 73.15625 217.941406 72.050781 218.722656 70.890625 C 223.199219 64.421875 227.648438 58.195312 232.445312 52.101562 C 237.164062 46.089844 242.339844 40.59375 248.1875 35.660156 C 248.457031 35.496094 248.675781 35.335938 248.917969 35.199219 C 249.050781 35.121094 249.214844 35.011719 249.347656 34.929688 Z M 268.972656 19.835938 C 261.234375 31.9375 250.910156 42.480469 240.640625 52.320312 C 235.007812 57.738281 229.480469 63.101562 223.65625 68.277344 C 223.980469 67.953125 224.25 67.628906 224.574219 67.308594 C 229.5625 62.15625 234.386719 57.007812 239.15625 51.644531 C 247.785156 41.886719 259.835938 29.351562 268.972656 19.835938 Z M 261.992188 25.628906 C 254.066406 33.933594 245.167969 43.316406 238.375 50.972656 C 233.632812 56.308594 228.804688 61.457031 223.847656 66.578125 C 223.628906 66.792969 223.414062 67.011719 223.199219 67.226562 C 225.839844 63.992188 228.886719 60.78125 231.285156 57.519531 C 238.132812 48.300781 245.84375 39.296875 254.441406 31.453125 C 257.003906 29.648438 259.539062 27.652344 261.992188 25.628906 Z M 266.4375 25.335938 C 265.199219 27.761719 263.90625 30.132812 262.664062 32.558594 C 259.320312 36.925781 255.765625 40.375 251.421875 44.5 C 243.6875 51.859375 235.949219 59.164062 227.753906 65.957031 C 232.363281 61.726562 236.839844 57.414062 241.367188 53.046875 C 250.210938 44.527344 259.1875 35.441406 266.4375 25.335938 Z M 266.4375 25.335938 " fill-opacity="1" fill-rule="evenodd"/></g></g></g></svg>